<svg width="609" height="228" viewBox="0 0 609 228" fill="none" xmlns="http://www.w3.org/2000/svg">
<path d="M599.602 219.426C597.76 218.657 596.464 217.844 595.713 216.985C594.98 216.109 594.613 215.045 594.613 213.793C594.613 212.184 595.167 210.896 596.276 209.93C597.385 208.965 598.851 208.482 600.675 208.482C601.659 208.482 602.562 208.598 603.385 208.831C604.225 209.045 605.03 209.394 605.799 209.877V213.391H605.745C604.851 212.765 603.966 212.291 603.089 211.969C602.213 211.647 601.373 211.486 600.568 211.486C599.745 211.486 599.093 211.665 598.61 212.023C598.145 212.38 597.912 212.872 597.912 213.498C597.912 214.124 598.145 214.651 598.61 215.081C599.093 215.492 600.094 216.028 601.614 216.69C603.456 217.477 604.753 218.309 605.504 219.185C606.255 220.043 606.63 221.107 606.63 222.377C606.63 224.04 606.04 225.381 604.86 226.401C603.68 227.402 602.133 227.903 600.219 227.903C599.182 227.903 598.19 227.751 597.242 227.447C596.294 227.143 595.418 226.696 594.613 226.105L593.942 222.028L593.996 221.974C595.015 222.869 596.088 223.584 597.215 224.12C598.342 224.639 599.379 224.898 600.327 224.898C601.256 224.898 601.99 224.702 602.526 224.308C603.063 223.897 603.331 223.334 603.331 222.618C603.331 222.01 603.072 221.483 602.553 221.036C602.052 220.571 601.069 220.034 599.602 219.426Z" fill="#D3D782"/>
<path d="M590.756 227.581H579.544V208.804H590.676L591.48 211.781H582.924V216.636H590.059V219.453H582.924V224.603H591.561L590.756 227.581Z" fill="#D3D782"/>
<path d="M574.649 227.581H571.27V219.587H561.076V227.581H557.697V208.804H561.076V216.476H571.27V208.804H574.649V227.581Z" fill="#D3D782"/>
<path d="M546.916 227.903C544.215 227.903 541.971 227 540.183 225.193C538.394 223.369 537.5 221.036 537.5 218.192C537.5 215.438 538.439 213.131 540.317 211.272C542.212 209.412 544.528 208.482 547.264 208.482C548.462 208.482 549.58 208.67 550.617 209.045C551.655 209.421 552.611 209.975 553.488 210.708V214.571H553.434C552.432 213.587 551.422 212.854 550.403 212.371C549.383 211.871 548.355 211.62 547.318 211.62C545.565 211.62 544.063 212.255 542.811 213.525C541.578 214.777 540.961 216.306 540.961 218.112C540.961 220.025 541.569 221.617 542.785 222.887C544.001 224.138 545.494 224.764 547.264 224.764C548.391 224.764 549.5 224.523 550.59 224.04C551.699 223.557 552.772 222.842 553.809 221.894L553.863 221.921L553.38 225.703C552.361 226.454 551.324 227.009 550.269 227.366C549.214 227.724 548.096 227.903 546.916 227.903Z" fill="#D3D782"/>
<path d="M536.652 227.581H532.521L526.432 220.392H524.796V227.581H521.416V208.804H527.371C529.409 208.804 531.028 209.313 532.226 210.333C533.424 211.334 534.023 212.72 534.023 214.491C534.023 215.724 533.657 216.815 532.923 217.763C532.208 218.711 531.216 219.399 529.946 219.829L536.652 227.581ZM530.616 214.598C530.616 213.722 530.304 213.015 529.678 212.479C529.052 211.942 528.229 211.674 527.21 211.674H524.742V217.656H527.103C528.14 217.656 528.98 217.379 529.624 216.824C530.286 216.252 530.616 215.51 530.616 214.598Z" fill="#D3D782"/>
<path d="M508.378 227.903C505.749 227.903 503.701 227.143 502.235 225.623C500.768 224.085 500.035 221.948 500.035 219.212V208.804H503.415V219.265C503.415 221.036 503.853 222.404 504.729 223.369C505.606 224.335 506.84 224.818 508.431 224.818C510.023 224.818 511.257 224.335 512.133 223.369C513.009 222.386 513.447 221 513.447 219.212V208.804H516.747V219.212C516.747 221.948 516.014 224.085 514.547 225.623C513.081 227.143 511.024 227.903 508.378 227.903Z" fill="#D3D782"/>
<path d="M495.355 227.581H491.975V219.587H481.782V227.581H478.402V208.804H481.782V216.476H491.975V208.804H495.355V227.581Z" fill="#D3D782"/>
<path d="M467.621 227.903C464.921 227.903 462.677 227 460.888 225.193C459.1 223.369 458.206 221.036 458.206 218.192C458.206 215.438 459.145 213.131 461.023 211.272C462.918 209.412 465.234 208.482 467.97 208.482C469.168 208.482 470.286 208.67 471.323 209.045C472.36 209.421 473.317 209.975 474.193 210.708V214.571H474.14C473.138 213.587 472.128 212.854 471.109 212.371C470.089 211.871 469.061 211.62 468.024 211.62C466.271 211.62 464.769 212.255 463.517 213.525C462.283 214.777 461.666 216.306 461.666 218.112C461.666 220.025 462.274 221.617 463.49 222.887C464.706 224.138 466.2 224.764 467.97 224.764C469.097 224.764 470.205 224.523 471.296 224.04C472.405 223.557 473.478 222.842 474.515 221.894L474.569 221.921L474.086 225.703C473.067 226.454 472.03 227.009 470.974 227.366C469.919 227.724 468.802 227.903 467.621 227.903Z" fill="#D3D782"/>
<path d="M450.221 208.804L450.436 209.152L441.61 227.581H438.123L446.009 211.701H437.077L436.541 208.804H450.221Z" fill="#D3D782"/>
<path d="M427.217 227.581H416.005V208.804H427.137L427.941 211.781H419.384V216.636H426.52V219.453H419.384V224.603H428.022L427.217 227.581Z" fill="#D3D782"/>
<path d="M411.11 227.581H407.731V219.587H397.537V227.581H394.157V208.804H397.537V216.476H407.731V208.804H411.11V227.581Z" fill="#D3D782"/>
<path d="M390.786 208.804V211.835H383.731V227.581H380.351V211.835H373.297V208.804H390.786Z" fill="#D3D782"/>
<path d="M355.698 227.956C352.89 227.956 350.547 227.026 348.67 225.167C346.792 223.289 345.853 220.973 345.853 218.219C345.853 215.465 346.801 213.149 348.696 211.272C350.61 209.376 352.961 208.428 355.751 208.428C358.559 208.428 360.901 209.367 362.779 211.245C364.675 213.105 365.623 215.411 365.623 218.165C365.623 220.919 364.666 223.244 362.752 225.14C360.857 227.017 358.505 227.956 355.698 227.956ZM355.644 211.54C353.874 211.54 352.371 212.184 351.137 213.471C349.921 214.741 349.313 216.306 349.313 218.165C349.313 220.043 349.93 221.626 351.164 222.913C352.398 224.201 353.909 224.845 355.698 224.845C357.486 224.845 359.006 224.201 360.258 222.913C361.509 221.626 362.135 220.061 362.135 218.219C362.135 216.359 361.501 214.786 360.231 213.498C358.979 212.193 357.45 211.54 355.644 211.54Z" fill="#D3D782"/>
<path d="M344.106 208.804V211.835H337.051V227.581H333.671V211.835H326.616V208.804H344.106Z" fill="#D3D782"/>
<path d="M311.844 219.426C310.002 218.657 308.705 217.844 307.954 216.985C307.221 216.109 306.854 215.045 306.854 213.793C306.854 212.184 307.409 210.896 308.517 209.93C309.626 208.965 311.092 208.482 312.916 208.482C313.9 208.482 314.803 208.598 315.626 208.831C316.466 209.045 317.271 209.394 318.04 209.877V213.391H317.986C317.092 212.765 316.207 212.291 315.331 211.969C314.454 211.647 313.614 211.486 312.809 211.486C311.987 211.486 311.334 211.665 310.851 212.023C310.386 212.38 310.154 212.872 310.154 213.498C310.154 214.124 310.386 214.651 310.851 215.081C311.334 215.492 312.335 216.028 313.855 216.69C315.697 217.477 316.994 218.309 317.745 219.185C318.496 220.043 318.871 221.107 318.871 222.377C318.871 224.04 318.281 225.381 317.101 226.401C315.921 227.402 314.374 227.903 312.46 227.903C311.423 227.903 310.431 227.751 309.483 227.447C308.535 227.143 307.659 226.696 306.854 226.105L306.184 222.028L306.237 221.974C307.257 222.869 308.33 223.584 309.456 224.12C310.583 224.639 311.62 224.898 312.568 224.898C313.498 224.898 314.231 224.702 314.767 224.308C315.304 223.897 315.572 223.334 315.572 222.618C315.572 222.01 315.313 221.483 314.794 221.036C314.293 220.571 313.31 220.034 311.844 219.426Z" fill="#D3D782"/>
<path d="M304.952 227.581H300.821L294.732 220.392H293.095V227.581H289.716V208.804H295.671C297.709 208.804 299.328 209.313 300.526 210.333C301.724 211.334 302.323 212.72 302.323 214.491C302.323 215.724 301.956 216.815 301.223 217.763C300.508 218.711 299.515 219.399 298.246 219.829L304.952 227.581ZM298.916 214.598C298.916 213.722 298.603 213.015 297.977 212.479C297.352 211.942 296.529 211.674 295.51 211.674H293.042V217.656H295.402C296.44 217.656 297.28 217.379 297.924 216.824C298.585 216.252 298.916 215.51 298.916 214.598Z" fill="#D3D782"/>
<path d="M285.027 227.581H273.815V208.804H284.947L285.752 211.781H277.195V216.636H284.33V219.453H277.195V224.603H285.832L285.027 227.581Z" fill="#D3D782"/>
<path d="M270.444 208.804V211.835H263.389V227.581H260.009V211.835H252.954V208.804H270.444Z" fill="#D3D782"/>
<path d="M251.085 208.804V211.835H244.03V227.581H240.65V211.835H233.595V208.804H251.085Z" fill="#D3D782"/>
<path d="M230.41 227.581H219.197V208.804H230.329L231.134 211.781H222.577V216.636H229.712V219.453H222.577V224.603H231.214L230.41 227.581Z" fill="#D3D782"/>
<path d="M215.739 227.581H204.554V208.804H207.934V224.55H215.739V227.581Z" fill="#D3D782"/>
<path d="M187.886 219.426C186.044 218.657 184.748 217.844 183.996 216.985C183.263 216.109 182.897 215.045 182.897 213.793C182.897 212.184 183.451 210.896 184.56 209.93C185.669 208.965 187.135 208.482 188.959 208.482C189.943 208.482 190.846 208.598 191.668 208.831C192.509 209.045 193.313 209.394 194.082 209.877V213.391H194.029C193.135 212.765 192.249 212.291 191.373 211.969C190.497 211.647 189.656 211.486 188.852 211.486C188.029 211.486 187.376 211.665 186.894 212.023C186.429 212.38 186.196 212.872 186.196 213.498C186.196 214.124 186.429 214.651 186.894 215.081C187.376 215.492 188.378 216.028 189.898 216.69C191.74 217.477 193.036 218.309 193.787 219.185C194.538 220.043 194.914 221.107 194.914 222.377C194.914 224.04 194.324 225.381 193.144 226.401C191.963 227.402 190.416 227.903 188.503 227.903C187.466 227.903 186.473 227.751 185.525 227.447C184.578 227.143 183.701 226.696 182.897 226.105L182.226 222.028L182.28 221.974C183.299 222.869 184.372 223.584 185.499 224.12C186.625 224.639 187.662 224.898 188.61 224.898C189.54 224.898 190.273 224.702 190.81 224.308C191.346 223.897 191.615 223.334 191.615 222.618C191.615 222.01 191.355 221.483 190.837 221.036C190.336 220.571 189.352 220.034 187.886 219.426Z" fill="#D3D782"/>
<path d="M177.496 212.371C177.496 211.924 177.407 211.486 177.228 211.057C177.049 210.628 176.62 209.877 175.94 208.804H179.267C179.678 209.394 179.964 209.921 180.125 210.386C180.304 210.833 180.393 211.307 180.393 211.808C180.393 212.452 180.152 213.131 179.669 213.847C179.204 214.562 178.203 215.599 176.665 216.958L175.672 216.261C176.37 215.295 176.843 214.526 177.094 213.954C177.362 213.382 177.496 212.854 177.496 212.371Z" fill="#D3D782"/>
<path d="M158.605 227.581H155.332V208.804H158.524L169.254 220.982L169.227 208.804H172.5V227.688H170.837L158.578 213.766L158.605 227.581Z" fill="#D3D782"/>
<path d="M141.653 227.956C138.846 227.956 136.503 227.026 134.625 225.167C132.748 223.289 131.809 220.973 131.809 218.219C131.809 215.465 132.757 213.149 134.652 211.272C136.566 209.376 138.917 208.428 141.707 208.428C144.515 208.428 146.857 209.367 148.735 211.245C150.631 213.105 151.578 215.411 151.578 218.165C151.578 220.919 150.622 223.244 148.708 225.14C146.813 227.017 144.461 227.956 141.653 227.956ZM141.6 211.54C139.829 211.54 138.327 212.184 137.093 213.471C135.877 214.741 135.269 216.306 135.269 218.165C135.269 220.043 135.886 221.626 137.12 222.913C138.354 224.201 139.865 224.845 141.653 224.845C143.442 224.845 144.962 224.201 146.213 222.913C147.465 221.626 148.091 220.061 148.091 218.219C148.091 216.359 147.456 214.786 146.187 213.498C144.935 212.193 143.406 211.54 141.6 211.54Z" fill="#D3D782"/>
<path d="M127.883 227.581H124.503V208.804H127.883V227.581Z" fill="#D3D782"/>
<path d="M120.998 208.804V211.835H113.943V227.581H110.563V211.835H103.508V208.804H120.998Z" fill="#D3D782"/>
<path d="M87.6561 227.581H84.1689L92.6991 208.723H96.0521L104.314 227.581H100.666L98.815 223.208H89.5875L87.6561 227.581ZM94.2817 212.425L90.7946 220.338H97.6347L94.2817 212.425Z" fill="#D3D782"/>
<path d="M82.5085 227.581H71.3228V208.804H74.7026V224.55H82.5085V227.581Z" fill="#D3D782"/>
<path d="M66.6347 227.581H55.4221V208.804H66.5542L67.3589 211.781H58.802V216.636H65.9372V219.453H58.802V224.603H67.4394L66.6347 227.581Z" fill="#D3D782"/>
<path d="M48.7355 208.804H52.3568L43.2097 227.956H41.6003L32.7214 208.804H36.4768L42.5391 222.511L48.7355 208.804Z" fill="#D3D782"/>
<path d="M29.8036 227.581H18.5911V208.804H29.7231L30.5279 211.781H21.9709V216.636H29.1062V219.453H21.9709V224.603H30.6083L29.8036 227.581Z" fill="#D3D782"/>
<path d="M16.381 227.581H12.25L6.16092 220.392H4.52464V227.581H1.14478V208.804H7.09977C9.13842 208.804 10.7568 209.313 11.955 210.333C13.1531 211.334 13.7522 212.72 13.7522 214.491C13.7522 215.724 13.3856 216.815 12.6524 217.763C11.9371 218.711 10.9446 219.399 9.6749 219.829L16.381 227.581ZM10.3455 214.598C10.3455 213.722 10.0326 213.015 9.40666 212.479C8.78076 211.942 7.95815 211.674 6.93882 211.674H4.47099V217.656H6.83153C7.86873 217.656 8.70923 217.379 9.35301 216.824C10.0147 216.252 10.3455 215.51 10.3455 214.598Z" fill="#D3D782"/>
<path d="M608.799 170.363C606.726 175.083 604.309 181.3 602.812 186.481C592.221 186.02 579.212 185.905 573.801 185.905C569.196 185.905 559.525 186.02 555.496 186.25V185.675C562.173 184.293 563.44 183.257 563.44 172.666V118.673C563.44 108.196 562.173 107.16 555.496 105.779V105.203C559.525 105.433 564.706 105.548 569.081 105.548C585.659 105.548 595.79 105.203 606.381 104.397C606.036 109.117 606.151 116.485 606.611 120.745L606.036 120.86C604.194 111.19 598.437 109.463 582.435 109.463C577.485 109.463 574.722 109.693 572.88 109.923V140.546L591.53 140.316C599.243 140.086 601.2 138.474 602.236 133.293H602.927C602.582 135.826 602.467 139.28 602.467 142.503C602.467 146.418 602.582 149.18 602.927 151.828H602.236C601.2 146.533 599.243 144.921 591.53 144.691L572.88 144.46V175.083C572.88 180.264 574.722 181.876 584.047 181.876C597.401 181.876 602.006 179.803 608.223 170.018L608.799 170.363Z" fill="#F8FDF7"/>
<path d="M553.077 185.56L552.616 186.25C534.542 180.034 519.576 168.636 510.02 148.72C507.718 148.95 505.415 149.065 503.113 149.065H496.206V173.472C496.206 183.257 497.242 184.293 504.725 185.675V186.25C500.58 186.02 495.975 185.905 491.485 185.905C486.996 185.905 482.851 186.02 478.822 186.25V185.675C485.499 184.293 486.765 183.257 486.765 172.666V118.673C486.765 108.196 485.499 107.16 478.822 105.779V105.203C482.851 105.433 487.226 105.548 491.716 105.548C495.745 105.548 500.81 105.088 506.452 105.088C525.677 105.088 538.686 112.456 538.686 126.501C538.686 137.553 529.937 143.424 520.151 146.417C527.289 162.189 539.032 178.192 553.077 185.56ZM496.206 109.463V145.266H504.149C517.043 145.266 528.44 140.546 528.44 127.422C528.44 114.989 519.806 109.117 503.458 109.117C500.35 109.117 497.127 109.348 496.206 109.463Z" fill="#F8FDF7"/>
<path d="M469.84 170.363C467.768 175.083 465.35 181.3 463.854 186.481C453.262 186.02 440.253 185.905 434.842 185.905C430.237 185.905 420.567 186.02 416.538 186.25V185.675C423.215 184.293 424.481 183.257 424.481 172.666V118.673C424.481 108.196 423.215 107.16 416.538 105.779V105.203C420.567 105.433 425.748 105.548 430.122 105.548C446.7 105.548 456.831 105.203 467.422 104.397C467.077 109.117 467.192 116.485 467.653 120.745L467.077 120.86C465.235 111.19 459.479 109.463 443.477 109.463C438.526 109.463 435.763 109.693 433.921 109.923V140.546L452.571 140.316C460.285 140.086 462.242 138.474 463.278 133.293H463.969C463.623 135.826 463.508 139.28 463.508 142.503C463.508 146.418 463.623 149.18 463.969 151.828H463.278C462.242 146.533 460.285 144.921 452.571 144.691L433.921 144.46V175.083C433.921 180.264 435.763 181.876 445.088 181.876C458.443 181.876 463.048 179.803 469.264 170.018L469.84 170.363Z" fill="#F8FDF7"/>
<path d="M400.15 119.363C380.809 164.031 375.974 175.314 370.908 188.092H367.685C365.382 179.113 357.208 159.887 337.407 115.564C334.414 108.887 333.032 106.815 327.737 105.779V105.203C331.536 105.433 335.91 105.548 340.285 105.548C344.775 105.548 348.689 105.433 352.258 105.203V105.779C347.538 106.585 346.387 108.081 346.387 110.384C346.387 111.765 347.077 113.837 347.883 115.794C364.231 154.476 368.26 164.147 371.944 173.241C376.434 162.65 381.615 149.526 394.163 119.248C395.545 115.794 396.466 113.262 396.466 111.19C396.466 108.081 395.084 106.469 390.594 105.779V105.203C394.393 105.433 398.998 105.548 401.416 105.548C403.834 105.548 408.208 105.433 411.777 105.203V105.779C406.827 106.93 404.985 108.311 400.15 119.363Z" fill="#F8FDF7"/>
<path d="M322.9 170.363C320.827 175.083 318.41 181.3 316.913 186.481C306.322 186.02 293.313 185.905 287.902 185.905C283.297 185.905 273.627 186.02 269.597 186.25V185.675C276.274 184.293 277.541 183.257 277.541 172.666V118.673C277.541 108.196 276.274 107.16 269.597 105.779V105.203C273.627 105.433 278.807 105.548 283.182 105.548C299.76 105.548 309.891 105.203 320.482 104.397C320.137 109.117 320.252 116.485 320.712 120.745L320.137 120.86C318.295 111.19 312.538 109.463 296.536 109.463C291.586 109.463 288.823 109.693 286.981 109.923V140.546L305.631 140.316C313.344 140.086 315.301 138.474 316.338 133.293H317.028C316.683 135.826 316.568 139.28 316.568 142.503C316.568 146.418 316.683 149.18 317.028 151.828H316.338C315.301 146.533 313.344 144.921 305.631 144.691L286.981 144.46V175.083C286.981 180.264 288.823 181.876 298.148 181.876C311.502 181.876 316.107 179.803 322.324 170.018L322.9 170.363Z" fill="#F8FDF7"/>
<path d="M259.933 164.031C259.933 178.307 247.96 187.862 232.534 187.862C223.439 187.862 213.999 184.639 208.818 181.3C209.163 176.35 209.163 167.485 208.703 163.801L209.279 163.686C213.653 176.35 221.827 183.603 233.8 183.603C243.125 183.603 251.299 177.501 251.299 167.14C251.299 159.081 246.694 154.016 232.303 148.144C217.222 141.812 210.315 136.517 210.315 125.465C210.315 112.686 221.136 103.591 234.951 103.591C243.125 103.591 250.263 106.469 255.904 109.808C255.328 114.413 255.443 120.745 255.904 125.465L255.328 125.58C250.378 113.837 243.355 107.851 233.685 107.851C225.741 107.851 218.834 113.377 218.834 122.472C218.834 130.3 223.324 133.984 237.139 139.74C252.105 146.187 259.933 152.404 259.933 164.031Z" fill="#F8FDF7"/>
<path d="M204.557 187.056L204.096 187.632C186.022 181.07 170.94 169.212 161.5 148.72C159.198 148.95 156.895 149.065 154.593 149.065H147.685V173.472C147.685 183.257 148.721 184.293 156.204 185.675V186.25C152.06 186.02 147.455 185.905 142.965 185.905C138.475 185.905 134.331 186.02 130.302 186.25V185.675C136.979 184.293 138.245 183.257 138.245 172.666V118.673C138.245 108.196 136.979 107.16 130.302 105.779V105.203C134.331 105.433 138.706 105.548 143.195 105.548C147.225 105.548 152.29 105.088 157.931 105.088C177.157 105.088 190.166 112.456 190.166 126.501C190.166 137.553 181.417 143.424 171.631 146.417C178.769 162.88 190.742 179.113 204.557 187.056ZM147.685 109.463V145.266H155.629C168.523 145.266 179.92 140.546 179.92 127.422C179.92 114.989 171.286 109.117 154.938 109.117C151.83 109.117 148.606 109.348 147.685 109.463Z" fill="#F8FDF7"/>
<path d="M121.32 170.363C119.248 175.083 116.83 181.3 115.334 186.481C104.742 186.02 91.7331 185.905 86.3223 185.905C81.7173 185.905 72.0469 186.02 68.0176 186.25V185.675C74.6948 184.293 75.9611 183.257 75.9611 172.666V118.673C75.9611 108.196 74.6948 107.16 68.0176 105.779V105.203C72.0469 105.433 77.2275 105.548 81.6022 105.548C98.1801 105.548 108.311 105.203 118.902 104.397C118.557 109.117 118.672 116.485 119.133 120.745L118.557 120.86C116.715 111.19 110.959 109.463 94.9566 109.463C90.0063 109.463 87.2433 109.693 85.4013 109.923V140.546L104.051 140.316C111.765 140.086 113.722 138.474 114.758 133.293H115.449C115.103 135.826 114.988 139.28 114.988 142.503C114.988 146.418 115.103 149.18 115.449 151.828H114.758C113.722 146.533 111.765 144.921 104.051 144.691L85.4013 144.46V175.083C85.4013 180.264 87.2433 181.876 96.5684 181.876C109.923 181.876 114.528 179.803 120.744 170.018L121.32 170.363Z" fill="#F8FDF7"/>
<path d="M25.9029 185.675V186.25C21.7585 186.02 17.1535 185.905 12.6636 185.905C8.17381 185.905 4.02934 186.02 0 186.25V185.675C6.6772 184.293 7.94356 183.257 7.94356 172.666V118.673C7.94356 108.196 6.6772 107.16 0 105.779V105.203C4.02934 105.433 8.17381 105.548 12.6636 105.548C16.5779 105.548 21.8736 105.088 27.7449 105.088C46.7404 105.088 60.6704 112.571 60.6704 126.731C60.6704 132.372 58.7133 136.747 55.3747 140.086C48.8126 146.763 36.9548 149.526 24.1761 149.526H17.3837V173.817C17.3837 183.257 18.4199 184.293 25.9029 185.675ZM17.3837 109.578V145.497H23.9458C34.0767 145.497 41.79 143.539 46.0496 139.28C48.9277 136.517 50.4243 132.603 50.4243 127.422C50.4243 114.298 40.2934 109.117 26.2483 109.117C23.1399 109.117 19.5711 109.348 17.3837 109.578Z" fill="#F8FDF7"/>
<path d="M590.662 83.5206C581.519 83.5206 577.425 76.2196 577.425 69.6691C577.425 59.4341 585.135 50.9048 594.756 50.9048C603.899 50.9048 607.993 58.2059 607.993 64.7563C607.993 75.0596 600.283 83.5206 590.662 83.5206ZM590.798 81.2689C597.758 81.2689 602.535 72.1938 602.535 63.801C602.535 56.5 599.396 53.1566 594.619 53.1566C587.66 53.1566 582.883 62.2317 582.883 70.6244C582.883 77.9254 586.022 81.2689 590.798 81.2689Z" fill="#D3D782"/>
<path d="M571.347 82.2241C569.164 82.8382 567.253 83.0429 565.274 83.0429C561.18 83.0429 558.929 81.5418 558.929 78.1301C558.929 77.5842 558.997 76.9701 559.133 76.2878L563.227 54.18H559.816L560.02 52.9518C563.705 51.5872 566.776 48.8578 569.164 45.5826H569.71L568.55 51.9966H576.601L576.192 54.18H568.209L564.251 75.1961C563.5 78.8807 564.66 80.5865 567.253 80.5865C568.823 80.5865 570.324 79.9042 571.961 79.1536L572.03 79.2218C571.825 79.836 571.416 81.5418 571.347 82.2241Z" fill="#D3D782"/>
<path d="M536.605 83.4649L536.145 84.0406C518.07 77.4785 502.989 65.6207 493.549 45.1286C491.247 45.3589 488.944 45.474 486.642 45.474H479.734V69.8803C479.734 79.6658 480.77 80.702 488.253 82.0834V82.6591C484.109 82.4288 479.504 82.3137 475.014 82.3137C470.524 82.3137 466.38 82.4288 462.35 82.6591V82.0834C469.028 80.702 470.294 79.6658 470.294 69.0744V15.0812C470.294 4.60493 469.028 3.56881 462.35 2.18733V1.61171C466.38 1.84195 470.754 1.95707 475.244 1.95707C479.274 1.95707 484.339 1.49658 489.98 1.49658C509.206 1.49658 522.215 8.86452 522.215 22.9097C522.215 33.9616 513.465 39.8329 503.68 42.8261C510.818 59.2889 522.79 75.5214 536.605 83.4649ZM479.734 5.8713V41.6749H487.678C500.572 41.6749 511.969 36.9548 511.969 23.8307C511.969 11.3972 503.335 5.52592 486.987 5.52592C483.879 5.52592 480.655 5.75617 479.734 5.8713Z" fill="#F8FDF7"/>
<path d="M453.369 66.772C451.297 71.492 448.879 77.7087 447.383 82.8893C436.791 82.4288 423.782 82.3137 418.371 82.3137C413.766 82.3137 404.096 82.4288 400.067 82.6591V82.0835C406.744 80.702 408.01 79.6659 408.01 69.0744V15.0812C408.01 4.60494 406.744 3.56882 400.067 2.18734V1.61172C404.096 1.84196 409.277 1.95709 413.651 1.95709C430.229 1.95709 440.36 1.61172 450.951 0.805847C450.606 5.52594 450.721 12.8939 451.182 17.1535L450.606 17.2686C448.764 7.59817 443.008 5.87131 427.006 5.87131C422.055 5.87131 419.292 6.10155 417.45 6.33181V36.9548L436.101 36.7246C443.814 36.4943 445.771 34.8826 446.807 29.702H447.498C447.152 32.2347 447.037 35.6884 447.037 38.9119C447.037 42.8261 447.152 45.5891 447.498 48.237H446.807C445.771 42.9413 443.814 41.3295 436.101 41.0993L417.45 40.869V71.492C417.45 76.6726 419.292 78.2844 428.617 78.2844C441.972 78.2844 446.577 76.2121 452.793 66.4266L453.369 66.772Z" fill="#F8FDF7"/>
<path d="M356.777 84.5011C355.741 79.5508 351.251 65.1603 338.242 28.6659C327.19 59.5192 322.7 73.3341 319.592 84.5011H316.023C313.49 73.2189 308.885 59.2889 290.811 11.7427C288.278 5.41085 286.782 3.33862 281.371 2.18738V1.61176C285.4 1.842 289.43 1.95712 293.689 1.95712C297.834 1.95712 302.208 1.842 306.123 1.61176V2.18738C301.402 2.99324 300.366 4.48985 300.366 6.79234C300.366 8.28895 300.712 9.55532 301.402 11.7427C312.8 44.0925 317.29 56.526 320.743 66.772C323.967 56.9864 327.766 45.5892 335.94 21.8736C334.673 18.6501 333.522 15.3115 332.371 11.9729C329.953 5.52597 328.341 3.45374 322.816 2.18738V1.61176C326.96 1.842 330.759 1.95712 334.904 1.95712C338.933 1.95712 343.308 1.842 347.222 1.61176V2.18738C342.502 2.99324 341.466 4.48985 341.466 6.79234C341.466 8.17383 341.811 9.90068 342.387 11.9729C354.36 46.7404 358.043 57.5621 361.267 67.2325C364.721 57.1016 368.174 46.9706 378.075 16.3476C379.341 12.5485 379.802 9.78556 379.802 7.71333C379.802 4.48986 378.42 2.87812 373.931 2.18738V1.61176C377.845 1.842 382.45 1.95712 384.867 1.95712C387.17 1.95712 390.969 1.842 394.998 1.61176V2.18738C389.127 3.33862 387.285 7.02259 384.522 14.6208C368.635 59.0587 364.375 71.6072 360.461 84.5011H356.777Z" fill="#F8FDF7"/>
<path d="M236.728 84.2708C213.012 84.2708 193.902 65.0451 193.902 42.1354C193.902 17.0384 214.739 0 237.534 0C261.365 0 280.475 19.2257 280.475 42.1354C280.475 67.2325 259.523 84.2708 236.728 84.2708ZM237.073 4.48984C218.078 4.48984 204.263 20.4921 204.263 41.4447C204.263 63.2031 217.157 79.781 237.189 79.781C256.184 79.781 269.999 63.7787 269.999 42.8262C269.999 21.0677 257.105 4.48984 237.073 4.48984Z" fill="#F8FDF7"/>
<path d="M150.076 82.0834V82.6591C145.932 82.4288 141.327 82.3137 136.837 82.3137C132.347 82.3137 128.203 82.4288 124.173 82.6591V82.0834C130.851 80.702 132.117 79.6658 132.117 69.0744V15.0812C132.117 4.60493 130.851 3.56881 124.173 2.18733V1.61171C128.203 1.84195 132.347 1.95707 136.837 1.95707C140.751 1.95707 146.047 1.49658 151.918 1.49658C170.914 1.49658 184.844 8.97965 184.844 23.1399C184.844 28.781 182.887 33.1557 179.548 36.4943C172.986 43.1715 161.128 45.9345 148.349 45.9345H141.557V70.2257C141.557 79.6658 142.593 80.702 150.076 82.0834ZM141.557 5.98642V41.9051H148.119C158.25 41.9051 165.963 39.948 170.223 35.6884C173.101 32.9255 174.598 29.0112 174.598 23.8307C174.598 10.7065 164.467 5.52592 150.422 5.52592C147.313 5.52592 143.744 5.75617 141.557 5.98642Z" fill="#F8FDF7"/>
<path d="M98.6181 81.8148C95.8205 82.8383 93.1594 83.3159 90.2253 83.3159C83.8796 83.3159 78.4209 79.4266 78.4209 70.488C78.4209 60.1164 86.8137 51.1096 95.8205 51.1096C100.87 51.1096 104.35 53.8389 104.35 58.0012C104.35 62.4364 101.006 67.2127 83.8796 68.3727C83.8796 69.055 83.8114 69.8056 83.8114 70.488C83.8114 77.9937 87.0184 80.996 91.7947 80.996C94.797 80.996 97.3899 79.4948 99.9145 76.9702L100.119 77.0384C99.5051 78.7443 98.9593 80.5183 98.6181 81.8148ZM95.2064 53.2248C90.43 53.2248 85.5172 59.0247 84.1525 66.4622C96.4346 65.234 99.3004 62.1634 99.3004 57.9329C99.3004 55.1354 97.6628 53.2248 95.2064 53.2248Z" fill="#D3D782"/>
<path d="M72.4083 82.1559L72.3401 82.4971C70.9072 82.4288 68.8602 82.3606 67.359 82.3606C65.9943 82.3606 64.8344 82.3606 63.5379 82.4288C63.8791 80.8594 64.6297 76.9701 65.1073 74.4455L67.4273 61.754C68.3143 56.8411 66.4037 54.5894 62.8556 54.5894C59.3074 54.5894 54.4628 57.3188 53.7123 61.481L51.1194 76.1513C50.3006 80.5865 50.71 81.3371 53.8487 82.1559L53.7805 82.4971C52.0064 82.3606 50.0959 82.3606 47.8442 82.3606C45.7289 82.3606 43.3407 82.3606 41.4302 82.4971L41.4984 82.1559C44.7736 81.3371 45.3195 80.5865 46.1383 76.1513L52.757 38.9639C53.5076 34.5969 53.1664 33.9146 50.0276 32.7546L50.0959 32.4134C53.4393 32.4134 55.691 32.3452 58.898 32.1405L54.3946 57.7964C56.5098 54.3847 61.2862 51.1777 65.7896 51.1777C70.2931 51.1777 72.8177 53.8389 72.8177 58.2741C72.8177 59.0246 72.6813 59.9799 72.5448 60.8669L69.7472 76.1513C68.9284 80.5865 69.406 81.3371 72.4083 82.1559Z" fill="#D3D782"/>
<path d="M25.9652 82.2242L25.897 82.5653C23.3724 82.4289 20.643 82.3606 18.0501 82.3606C15.5255 82.3606 13.0008 82.4289 10.4762 82.5653L10.5444 82.2242C14.9796 81.4054 15.5255 80.8595 16.6172 74.7867L23.1677 36.9852C21.8712 36.9852 20.0971 36.9852 18.1184 37.0534C10.3397 37.1899 7.81504 39.2369 5.42686 45.1732L5.08569 45.105C5.76803 42.5121 6.92801 37.0534 7.13271 34.324C12.9326 34.5287 18.4595 34.7334 26.3064 34.7334C34.1533 34.7334 39.9532 34.5287 45.8213 34.324C45.0707 37.0534 44.2519 42.5121 44.0472 45.105L43.706 45.1732C43.2966 39.1004 41.3861 37.1899 33.8121 37.0534C31.8333 36.9852 29.9228 36.9852 28.5581 36.9852L22.0077 74.7867C20.9842 80.8595 21.7347 81.4054 25.9652 82.2242Z" fill="#D3D782"/>
</svg>
