<svg width="312" height="118" viewBox="0 0 312 118" fill="none" xmlns="http://www.w3.org/2000/svg">
<path d="M312 2.1413C290.859 48.7249 284.967 62.8726 277.689 82.7712C275.495 82.5412 273.415 82.4262 271.22 82.4262H268.217V82.1961C274.57 71.2691 283.119 54.361 303.336 9.73271C289.357 9.73271 281.733 9.84773 274.339 9.96275C265.791 10.0778 263.711 11.228 260.823 20.5447L260.13 20.4297C261.863 10.5379 262.209 6.74215 262.671 1.22113C266.599 1.68122 276.072 2.02628 287.509 2.02628C298.484 2.02628 306.455 1.91126 311.653 1.68122L312 2.1413Z" fill="#D3D782"/>
<path d="M249.03 65.058C247.181 70.349 245.911 75.87 245.333 82.5413C236.9 82.4262 228.929 82.3112 218.878 82.3112C209.867 82.3112 200.163 82.4262 195.427 82.5413L195.196 82.1962C200.394 70.579 207.672 62.6426 221.766 47.1147C232.741 35.0375 237.593 29.5164 237.593 20.7748C237.593 12.2632 233.203 4.78686 222.806 4.78686C214.373 4.78686 207.788 8.58256 201.55 22.2701L201.203 22.1551C201.319 17.5542 200.972 12.2632 200.279 8.8126C206.171 4.32677 213.449 0.0709839 224.539 0.0709839C238.286 0.0709839 247.759 8.23749 247.759 19.0495C247.759 28.9413 241.636 35.0375 226.734 49.4151C215.181 60.8022 209.521 66.8984 204.669 74.3748C213.449 74.6048 223.037 74.6048 232.163 74.4898C242.445 74.4898 244.293 72.6494 248.452 64.828L249.03 65.058Z" fill="#D3D782"/>
<path d="M89.1326 0C103.734 0 112.541 3.91297 121.011 11.082L109.765 24.5801C103.496 19.3806 97.9397 16.3867 88.5593 16.3867C75.5862 16.3867 65.2762 27.8032 65.2761 41.5439V41.7734C65.2761 56.5449 75.4804 67.3972 89.8376 67.3975C96.3373 67.3975 102.119 65.7824 106.628 62.5459V51.0107H88.6843V35.6484H111.625C111.401 37.6638 111.262 39.7056 111.262 41.7734V42.043C111.262 53.6829 115.026 64.2792 121.493 72.6562C113.398 78.7946 102.712 83.541 89.2644 83.541C64.0038 83.5409 46.6208 65.881 46.6208 41.9971V41.7676H46.614C46.614 18.8093 64.5707 7.2499e-05 89.1326 0ZM159.866 0.00683594C175.153 0.00683594 184.31 5.08172 191.838 12.4609L180.486 25.5059C174.23 19.8468 167.856 16.3869 159.748 16.3867C146.076 16.3867 136.221 27.6981 136.22 41.5439V41.7734C136.22 55.6193 145.845 67.1543 159.748 67.1543C169.009 67.1542 174.685 63.4647 181.059 57.6875L192.411 69.1172C184.079 78.0063 174.804 83.5409 159.168 83.541C135.285 83.541 117.571 65.1851 117.571 41.9971V41.7803C117.571 18.8155 134.942 0.00685955 159.866 0.00683594ZM62.4158 1.37305C55.4678 5.30556 49.7719 10.9714 45.8562 17.7598H38.447V83.1875H20.6091V17.7598H0.753662V1.37305H62.4158Z" fill="#F8FDF7"/>
<path d="M310.447 117.621H299.653V98.671H310.365L311.154 101.026H302.29V106.819H309.713V109.148H302.29V115.266H311.235L310.447 117.621Z" fill="#D3D782"/>
<path d="M288.323 117.946C285.622 117.946 283.365 117.025 281.552 115.185C279.74 113.344 278.833 110.998 278.833 108.146C278.833 106.81 279.078 105.547 279.568 104.356C280.075 103.165 280.791 102.109 281.716 101.189C282.64 100.286 283.7 99.5915 284.897 99.1042C286.111 98.5989 287.38 98.3462 288.703 98.3462C289.936 98.3462 291.078 98.5447 292.129 98.9418C293.199 99.3388 294.177 99.9254 295.066 100.701V103.869H295.011C293.96 102.822 292.9 102.046 291.83 101.541C290.779 101.035 289.691 100.783 288.567 100.783C286.646 100.783 284.987 101.495 283.592 102.921C282.214 104.347 281.525 106.062 281.525 108.065C281.525 110.194 282.205 111.972 283.564 113.398C284.924 114.806 286.564 115.509 288.486 115.509C289.7 115.509 290.878 115.257 292.02 114.751C293.181 114.228 294.295 113.452 295.365 112.423L295.419 112.45L295.038 115.509C293.987 116.34 292.909 116.953 291.803 117.35C290.697 117.747 289.537 117.946 288.323 117.946Z" fill="#D3D782"/>
<path d="M260.175 117.621H257.673V98.671H260.093L272.111 112.288V98.671H274.585V117.756H273.688L260.175 102.434V117.621Z" fill="#D3D782"/>
<path d="M252.589 117.621H241.795V98.671H252.508L253.296 101.026H244.433V106.819H251.855V109.148H244.433V115.266H253.378L252.589 117.621Z" fill="#D3D782"/>
<path d="M239.219 117.621H235.929L229.24 110.041H227.174V117.621H224.536V98.671H230.083C232.004 98.671 233.545 99.1764 234.705 100.187C235.883 101.198 236.472 102.56 236.472 104.275C236.472 105.556 236.074 106.675 235.276 107.632C234.478 108.588 233.4 109.247 232.04 109.608L239.219 117.621ZM233.808 104.275C233.808 103.3 233.454 102.515 232.747 101.92C232.04 101.306 231.125 100.999 230.001 100.999H227.119V107.74H229.865C231.025 107.74 231.968 107.415 232.693 106.765C233.436 106.116 233.808 105.285 233.808 104.275Z" fill="#D3D782"/>
<path d="M219.452 117.621H208.658V98.671H219.37L220.159 101.026H211.295V106.819H218.718V109.148H211.295V115.266H220.24L219.452 117.621Z" fill="#D3D782"/>
<path d="M203.411 107.144V109.5H196.559V117.621H193.921V98.671H205.123L204.308 101.026H196.559V107.144H203.411Z" fill="#D3D782"/>
<path d="M174.039 117.621H171.538V98.671H173.958L185.976 112.288V98.671H188.45V117.756H187.552L174.039 102.434V117.621Z" fill="#D3D782"/>
<path d="M157.377 118C154.567 118 152.211 117.052 150.308 115.158C148.404 113.263 147.453 110.934 147.453 108.173C147.453 105.394 148.413 103.057 150.335 101.162C152.256 99.2486 154.622 98.2921 157.431 98.2921C160.223 98.2921 162.57 99.2396 164.473 101.135C166.377 103.03 167.328 105.358 167.328 108.119C167.328 110.898 166.368 113.244 164.446 115.158C162.525 117.052 160.168 118 157.377 118ZM157.322 100.728C155.329 100.728 153.634 101.45 152.238 102.894C150.842 104.32 150.144 106.062 150.144 108.119C150.144 110.212 150.842 111.981 152.238 113.425C153.634 114.851 155.347 115.564 157.377 115.564C159.371 115.564 161.075 114.851 162.488 113.425C163.92 111.981 164.636 110.231 164.636 108.173C164.636 106.098 163.92 104.338 162.488 102.894C161.075 101.45 159.353 100.728 157.322 100.728Z" fill="#D3D782"/>
<path d="M137.346 117.946C134.646 117.946 132.389 117.025 130.576 115.185C128.763 113.344 127.857 110.998 127.857 108.146C127.857 106.81 128.102 105.547 128.591 104.356C129.099 103.165 129.815 102.109 130.739 101.189C131.664 100.286 132.724 99.5915 133.92 99.1042C135.135 98.5989 136.404 98.3462 137.727 98.3462C138.96 98.3462 140.102 98.5447 141.153 98.9418C142.222 99.3388 143.201 99.9254 144.089 100.701V103.869H144.035C142.984 102.822 141.923 102.046 140.854 101.541C139.802 101.035 138.715 100.783 137.591 100.783C135.67 100.783 134.011 101.495 132.615 102.921C131.238 104.347 130.549 106.062 130.549 108.065C130.549 110.194 131.229 111.972 132.588 113.398C133.948 114.806 135.588 115.509 137.509 115.509C138.724 115.509 139.902 115.257 141.044 114.751C142.204 114.228 143.319 113.452 144.388 112.423L144.443 112.45L144.062 115.509C143.011 116.34 141.932 116.953 140.827 117.35C139.721 117.747 138.561 117.946 137.346 117.946Z" fill="#D3D782"/>
<path d="M118.278 117.621H113.901V110.014H104.928V117.621H100.523V98.671H104.928V106.007H113.901V98.671H118.278V117.621Z" fill="#D3D782"/>
<path d="M90.0787 117.946C87.3054 117.946 85.0033 117.034 83.1726 115.212C81.3599 113.371 80.4536 111.016 80.4536 108.146C80.4536 105.367 81.4052 103.039 83.3085 101.162C85.2118 99.2847 87.5773 98.3462 90.405 98.3462C91.6013 98.3462 92.7252 98.5357 93.7765 98.9147C94.8278 99.2756 95.7976 99.808 96.6858 100.512V105.168H96.6042C95.6798 104.266 94.71 103.58 93.6949 103.111C92.698 102.623 91.701 102.38 90.7041 102.38C89.0727 102.38 87.7042 102.93 86.5985 104.031C85.5109 105.114 84.9671 106.468 84.9671 108.092C84.9671 109.806 85.5109 111.214 86.5985 112.315C87.686 113.398 89.0455 113.939 90.6769 113.939C91.7826 113.939 92.8611 113.714 93.9124 113.263C94.9638 112.811 95.9879 112.135 96.9849 111.232L97.0392 111.286L96.4683 115.915C95.4532 116.619 94.4291 117.134 93.3959 117.459C92.3626 117.783 91.2569 117.946 90.0787 117.946Z" fill="#D3D782"/>
<path d="M79.9051 117.621H74.6847L69.0564 110.745H67.9145V117.621H63.5098V98.671H70.144C72.4279 98.671 74.1953 99.1854 75.446 100.214C76.7148 101.243 77.3493 102.696 77.3493 104.573C77.3493 105.782 77.0139 106.865 76.3432 107.821C75.6907 108.76 74.7663 109.491 73.5699 110.014L79.9051 117.621ZM72.9989 104.816C72.9989 104.022 72.718 103.39 72.1561 102.921C71.5941 102.434 70.8419 102.19 69.8993 102.19H67.8329V107.55H69.8178C70.7784 107.55 71.5488 107.307 72.1289 106.819C72.7089 106.314 72.9989 105.646 72.9989 104.816Z" fill="#D3D782"/>
<path d="M50.6461 117.973C47.8727 117.973 45.7248 117.197 44.2021 115.645C42.6795 114.093 41.9182 111.9 41.9182 109.066V98.671H46.2957V109.148C46.2957 110.7 46.6764 111.909 47.4377 112.775C48.2171 113.623 49.3047 114.048 50.7004 114.048C52.0962 114.048 53.1747 113.623 53.936 112.775C54.7154 111.909 55.1052 110.682 55.1052 109.093V98.671H59.4011V109.066C59.4011 111.9 58.6398 114.093 57.1172 115.645C55.5946 117.197 53.4375 117.973 50.6461 117.973Z" fill="#D3D782"/>
<path d="M37.8249 117.621H33.4473V110.014H24.4748V117.621H20.0701V98.671H24.4748V106.007H33.4473V98.671H37.8249V117.621Z" fill="#D3D782"/>
<path d="M9.62511 117.946C6.85177 117.946 4.54972 117.034 2.71896 115.212C0.906319 113.371 0 111.016 0 108.146C0 105.367 0.951634 103.039 2.8549 101.162C4.75817 99.2847 7.12367 98.3462 9.95138 98.3462C11.1477 98.3462 12.2716 98.5357 13.3229 98.9147C14.3742 99.2756 15.344 99.808 16.2322 100.512V105.168H16.1506C15.2262 104.266 14.2564 103.58 13.2413 103.111C12.2444 102.623 11.2474 102.38 10.2505 102.38C8.61909 102.38 7.25055 102.93 6.14484 104.031C5.05726 105.114 4.51347 106.468 4.51347 108.092C4.51347 109.806 5.05726 111.214 6.14484 112.315C7.23242 113.398 8.5919 113.939 10.2233 113.939C11.329 113.939 12.4075 113.714 13.4588 113.263C14.5102 112.811 15.5343 112.135 16.5313 111.232L16.5856 111.286L16.0147 115.915C14.9996 116.619 13.9754 117.134 12.9422 117.459C11.909 117.783 10.8033 117.946 9.62511 117.946Z" fill="#D3D782"/>
</svg>
