<svg width="312" height="84" viewBox="0 0 312 84" fill="none" xmlns="http://www.w3.org/2000/svg">
<path d="M312 2.1413C290.859 48.7249 284.967 62.8726 277.689 82.7712C275.495 82.5412 273.415 82.4262 271.22 82.4262H268.217V82.1961C274.57 71.2691 283.119 54.361 303.336 9.73271C289.357 9.73271 281.733 9.84773 274.339 9.96275C265.791 10.0778 263.711 11.228 260.823 20.5447L260.13 20.4297C261.863 10.5379 262.209 6.74215 262.671 1.22113C266.599 1.68122 276.072 2.02628 287.509 2.02628C298.484 2.02628 306.455 1.91126 311.653 1.68122L312 2.1413Z" fill="#D3D782"/>
<path d="M249.03 65.058C247.181 70.349 245.911 75.87 245.333 82.5413C236.9 82.4262 228.929 82.3112 218.878 82.3112C209.867 82.3112 200.163 82.4262 195.427 82.5413L195.196 82.1962C200.394 70.579 207.672 62.6426 221.766 47.1147C232.741 35.0375 237.593 29.5164 237.593 20.7748C237.593 12.2632 233.203 4.78686 222.806 4.78686C214.373 4.78686 207.788 8.58256 201.55 22.2701L201.203 22.1551C201.319 17.5542 200.972 12.2632 200.279 8.8126C206.171 4.32677 213.449 0.0709839 224.539 0.0709839C238.286 0.0709839 247.759 8.23749 247.759 19.0495C247.759 28.9413 241.636 35.0375 226.734 49.4151C215.181 60.8022 209.521 66.8984 204.669 74.3748C213.449 74.6048 223.037 74.6048 232.163 74.4898C242.445 74.4898 244.293 72.6494 248.452 64.828L249.03 65.058Z" fill="#D3D782"/>
<path d="M89.1326 0C103.734 0 112.541 3.91297 121.011 11.082L109.765 24.5801C103.496 19.3806 97.9397 16.3867 88.5593 16.3867C75.5862 16.3867 65.2762 27.8032 65.2761 41.5439V41.7734C65.2761 56.5449 75.4804 67.3972 89.8376 67.3975C96.3373 67.3975 102.119 65.7824 106.628 62.5459V51.0107H88.6843V35.6484H111.625C111.401 37.6638 111.262 39.7056 111.262 41.7734V42.043C111.262 53.6829 115.026 64.2792 121.493 72.6562C113.398 78.7946 102.712 83.541 89.2644 83.541C64.0038 83.5409 46.6208 65.881 46.6208 41.9971V41.7676H46.614C46.614 18.8093 64.5707 7.2499e-05 89.1326 0ZM159.866 0.00683594C175.153 0.00683594 184.31 5.08172 191.838 12.4609L180.486 25.5059C174.23 19.8468 167.856 16.3869 159.748 16.3867C146.076 16.3867 136.221 27.6981 136.22 41.5439V41.7734C136.22 55.6193 145.845 67.1543 159.748 67.1543C169.009 67.1542 174.685 63.4647 181.059 57.6875L192.411 69.1172C184.079 78.0063 174.804 83.5409 159.168 83.541C135.285 83.541 117.571 65.1851 117.571 41.9971V41.7803C117.571 18.8155 134.942 0.00685955 159.866 0.00683594ZM62.4158 1.37305C55.4678 5.30556 49.7719 10.9714 45.8562 17.7598H38.447V83.1875H20.6091V17.7598H0.753662V1.37305H62.4158Z" fill="#F8FDF7"/>
</svg>
